<?xml version='1.0' encoding='iso-8859-1'?>
<svg version="1.1" xmlns="http://www.w3.org/2000/svg" viewBox="0 0 278.753 278.753" xmlns:xlink="http://www.w3.org/1999/xlink" enable-background="new 0 0 278.753 278.753">
  <g>
    <path d="M273.462,13.372c-6.96-10.441-22.621-15.661-34.802-10.441L19.404,88.197c-13.921,3.48-20.882,15.661-19.141,29.582   c1.74,13.921,10.441,24.362,24.362,26.102l85.266,13.921c5.22,1.74,10.441,5.22,10.441,10.441l13.921,85.266   c3.48,13.921,15.661,24.362,29.582,24.362c12.181,0,22.621-6.96,27.842-17.401l85.266-219.255   C280.422,30.773,278.683,22.072,273.462,13.372z M28.105,124.739c-6.96-1.74-10.441-6.96-10.441-10.441   c-1.74-3.48,0-10.441,6.96-12.181L243.88,16.852c1.74,0,3.48,0,5.22,0L123.446,142.506c-3.132-1.862-6.473-3.324-10.075-3.846   L28.105,124.739z M174.275,251.768c-1.74,6.96-8.701,6.96-10.441,6.96c-5.22,0-10.441-3.48-12.181-10.441l-13.921-85.266   c-0.4-2.767-1.357-5.377-2.558-7.883L259.976,30.338c-0.122,0.713-0.157,1.375-0.435,2.175L174.275,251.768z"/>
  </g>
</svg>
